HIERARCHY
ROOT reference
{
  OFFSET 0 0 0
  CHANNELS 6 Xposition Yposition Zposition Zrotation Xrotation Yrotation
  JOINT Hips
  {
    OFFSET 37.0141 93.06 75.8012
    CHANNELS 6 Xposition Yposition Zposition Zrotation Xrotation Yrotation
    JOINT Spine
    {
      OFFSET 0 8.22665 0
      CHANNELS 6 Xposition Yposition Zposition Zrotation Xrotation Yrotation
      JOINT Spine1
      {
        OFFSET 0 24.451 0
        CHANNELS 6 Xposition Yposition Zposition Zrotation Xrotation Yrotation
        JOINT Neck
        {
          OFFSET 0 24.3506 2.21369
          CHANNELS 6 Xposition Yposition Zposition Zrotation Xrotation Yrotation
          JOINT Head
          {
            OFFSET 0 14.0455 -2.0065
            CHANNELS 6 Xposition Yposition Zposition Zrotation Xrotation Yrotation
            End Site
            {
              OFFSET 0 25.0812 0
            }
          }
        }
        JOINT LeftShoulder
        {
          OFFSET 4.0594 22.2558 -0.272799
          CHANNELS 6 Xposition Yposition Zposition Zrotation Xrotation Yrotation
          JOINT LeftArm
          {
            OFFSET 12.0298 0 0
            CHANNELS 6 Xposition Yposition Zposition Zrotation Xrotation Yrotation
            JOINT LeftForeArm
            {
              OFFSET 31.2689 0 0
              CHANNELS 6 Xposition Yposition Zposition Zrotation Xrotation Yrotation
              JOINT LeftHand
              {
                OFFSET 28.0275 0 0
                CHANNELS 6 Xposition Yposition Zposition Zrotation Xrotation Yrotation
                End Site
                {
                  OFFSET 15.0487 0 0
                }
              }
            }
          }
        }
        JOINT RightShoulder
        {
          OFFSET -3.96464 22.2558 -0.272799
          CHANNELS 6 Xposition Yposition Zposition Zrotation Xrotation Yrotation
          JOINT RightArm
          {
            OFFSET -12.0298 0 0
            CHANNELS 6 Xposition Yposition Zposition Zrotation Xrotation Yrotation
            JOINT RightForeArm
            {
              OFFSET -31.2689 0 0
              CHANNELS 6 Xposition Yposition Zposition Zrotation Xrotation Yrotation
              JOINT RightHand
              {
                OFFSET -28.0275 0 0
                CHANNELS 6 Xposition Yposition Zposition Zrotation Xrotation Yrotation
                End Site
                {
                  OFFSET -15.0487 0 0
                }
              }
            }
          }
        }
      }
    }
    JOINT LeftUpLeg
    {
      OFFSET 10.0325 0 0
      CHANNELS 6 Xposition Yposition Zposition Zrotation Xrotation Yrotation
      JOINT LeftLeg
      {
        OFFSET 0 -38.4033 0
        CHANNELS 6 Xposition Yposition Zposition Zrotation Xrotation Yrotation
        JOINT LeftFoot
        {
          OFFSET 0 -44.1642 0
          CHANNELS 6 Xposition Yposition Zposition Zrotation Xrotation Yrotation
          JOINT LeftToeBase
          {
            OFFSET 0 -6.52112 15.0487
            CHANNELS 6 Xposition Yposition Zposition Zrotation Xrotation Yrotation
            End Site
            {
              OFFSET 0 0 4.013
            }
          }
        }
      }
    }
    JOINT RightUpLeg
    {
      OFFSET -10.0325 0 0
      CHANNELS 6 Xposition Yposition Zposition Zrotation Xrotation Yrotation
      JOINT RightLeg
      {
        OFFSET 0 -38.4033 0
        CHANNELS 6 Xposition Yposition Zposition Zrotation Xrotation Yrotation
        JOINT RightFoot
        {
          OFFSET 0 -44.1642 0
          CHANNELS 6 Xposition Yposition Zposition Zrotation Xrotation Yrotation
          JOINT RightToeBase
          {
            OFFSET 0 -6.52112 15.0487
            CHANNELS 6 Xposition Yposition Zposition Zrotation Xrotation Yrotation
            End Site
            {
              OFFSET 0 0 4.013
            }
          }
        }
      }
    }
  }
}
MOTION
Frames:	5
Frame Time:	0.004
0 0 0 0 0 -0 -24.3367 85.7484 -197.477 0.890375 -1.09875 7.02164 3.55271e-015 8.22665 -2.84217e-014 0.458888 -5.85957 0.206758 -3.55271e-015 24.451 0 -1.41981 1.97281 0.208177 3.55271e-015 24.3506 2.21369 6.49344 21.6577 10.9753 0 14.0455 -2.0065 -10.3708 -3.50083 9.99236 4.0594 22.2558 -0.272799 18.137 1.73705 -3.55197 12.0298 -2.84217e-014 0 -22.6918 2.89155 1.6767 31.2689 0 0 0.170774 -8.11792 6.42851 28.0275 0 0 24.7705 -6.69108 6.58853 -3.96464 22.2558 -0.272799 -15.5166 1.63288 -0.589253 -12.0298 0 -2.84217e-014 15.1816 -0.00404502 4.54996 -31.2689 0 0 2.08407 -0.252303 -9.20291 -28.0275 -5.68434e-014 -2.84217e-014 -3.86932 -0.027798 -1.68811 10.0325 -1.42109e-014 -2.84217e-014 1.28551 6.47364 -1.09927 0 -38.4033 2.84217e-014 -2.99851 3.522 -2.71397 0 -44.1642 0 1.98769 -9.4101 17.6981 -1.42109e-014 -6.52112 15.0487 9.93923e-017 0 3.18055e-015 -10.0325 -1.42109e-014 -2.84217e-014 -2.39232 0.323257 2.65235 0 -38.4033 0 2.59595 16.7953 -2.18931 3.55271e-015 -44.1642 0 1.19854 -17.0578 -14.4394 -7.10543e-015 -6.52112 15.0487 -4.96962e-017 -9.93923e-017 -0 
0 0 0 0 0 -0 -24.3367 85.7484 -197.477 0.890544 -1.10046 7.01949 0 8.22665 0 0.458888 -5.85957 0.206758 3.55271e-015 24.451 0 -1.42119 1.97281 0.208177 0 24.3506 2.21369 6.49344 21.6577 10.9753 1.42109e-014 14.0455 -2.0065 -10.3586 -3.48592 9.9922 4.0594 22.2558 -0.272799 18.1367 1.73375 -3.55196 12.0298 0 0 -22.692 2.90037 1.67672 31.2689 2.84217e-014 0 0.198208 -8.0529 6.40396 28.0275 -2.84217e-014 -2.84217e-014 24.6241 -6.65055 6.52215 -3.96464 22.2558 -0.272799 -15.5137 1.63288 -0.589253 -12.0298 0 0 15.1954 0.00781807 4.54996 -31.2689 0 2.84217e-014 2.08198 -0.265193 -9.20292 -28.0275 2.84217e-014 2.84217e-014 -3.86345 -0.042504 -1.65557 10.0325 0 0 1.29433 6.47574 -1.08604 -3.55271e-015 -38.4033 2.84217e-014 -2.99437 3.52573 -2.7783 1.77636e-015 -44.1642 2.84217e-014 2.00865 -9.40868 17.7256 7.10543e-015 -6.52112 15.0487 9.93923e-017 2.98177e-016 -3.18055e-015 -10.0325 0 0 -2.39219 0.323262 2.62958 0 -38.4033 -2.84217e-014 2.59087 16.7955 -2.1697 0 -44.1642 -2.84217e-014 1.19942 -17.0539 -14.4396 0 -6.52112 15.0487 3.72721e-016 1.98785e-016 -0 
0 0 0 0 0 -0 -24.3367 85.7484 -197.477 0.891563 -1.11027 7.00993 0 8.22665 2.84217e-014 0.458888 -5.85957 0.206758 0 24.451 -2.84217e-014 -1.43031 1.97281 0.208177 7.10543e-015 24.3506 2.21369 6.50362 21.6577 10.9753 -7.10543e-015 14.0455 -2.0065 -10.3682 -3.48135 9.99215 4.0594 22.2558 -0.272799 18.1378 1.74618 -3.56197 12.0298 0 0 -22.6914 2.88008 1.67669 31.2689 0 -2.84217e-014 0.185863 -8.03931 6.387 28.0275 -2.84217e-014 0 24.6469 -6.63598 6.51694 -3.96464 22.2558 -0.272799 -15.4999 1.63288 -0.589253 -12.0298 -2.84217e-014 -2.84217e-014 15.2026 0.00978707 4.54996 -31.2689 5.68434e-014 2.84217e-014 2.08404 -0.252463 -9.20291 -28.0275 -2.84217e-014 2.84217e-014 -3.84305 -0.030036 -1.65819 10.0325 0 -2.84217e-014 1.28541 6.50256 -1.08738 5.32907e-015 -38.4033 0 -2.99847 3.50515 -2.72772 0 -44.1642 2.84217e-014 1.99311 -9.40972 17.7054 -1.42109e-014 -6.52112 15.0487 7.45443e-017 9.93923e-017 3.18055e-015 -10.0325 0 0 -2.3922 0.323262 2.63069 0 -38.4033 0 2.58049 16.7949 -2.22896 -7.10543e-015 -44.1642 -2.84217e-014 1.21231 -17.0457 -14.3627 7.10543e-015 -6.52112 15.0487 3.72721e-017 9.93923e-017 -1.59028e-015 
0 0 0 0 0 -0 -24.3367 85.7484 -197.477 0.890263 -1.10029 7.00617 3.55271e-015 8.22665 -2.84217e-014 0.449659 -5.86068 0.206758 -3.55271e-015 24.451 0 -1.41568 1.97281 0.208177 -3.55271e-015 24.3506 2.21369 6.50504 21.6466 10.9745 0 14.0455 -2.0065 -10.3765 -3.45007 9.99182 4.0594 22.2558 -0.272799 18.1219 1.74449 -3.56671 12.0298 0 2.84217e-014 -22.6914 2.87834 1.67668 31.2689 2.84217e-014 0 0.179078 -8.01496 6.37389 28.0275 -2.84217e-014 0 24.6303 -6.61606 6.49899 -3.96464 22.2558 -0.272799 -15.498 1.63288 -0.589253 -12.0298 0 2.84217e-014 15.2035 -0.0104052 4.54996 -31.2689 0 0 2.0875 -0.231025 -9.20653 -28.0275 0 0 -3.79654 -0.010021 -1.63931 10.0325 0 -2.84217e-014 1.28614 6.48452 -1.1028 -1.77636e-015 -38.4033 2.84217e-014 -2.99892 3.5141 -2.71343 1.77636e-015 -44.1642 0 1.99948 -9.40541 17.7097 0 -6.52112 15.0487 2.48481e-017 0 3.18055e-015 -10.0325 1.42109e-014 -2.84217e-014 -2.39233 0.323256 2.65446 0 -38.4033 -2.84217e-014 2.58602 16.786 -2.21715 7.10543e-015 -44.1642 0 1.22896 -17.0509 -14.4041 7.10543e-015 -6.52112 15.0487 -4.96962e-017 0 1.59028e-015 
0 0 0 0 0 -0 -24.3367 85.7484 -197.477 0.891569 -1.11157 7.00208 0 8.22665 -2.84217e-014 0.448744 -5.8618 0.207707 3.55271e-015 24.451 0 -1.41129 1.97381 0.209171 -3.55271e-015 24.3506 2.21369 6.51111 21.6401 10.97 0 14.0455 -2.0065 -10.386 -3.43315 9.98784 4.0594 22.2558 -0.272799 18.1206 1.74 -3.57124 12.0298 0 0 -22.6911 2.86937 1.67518 31.2689 0 -2.84217e-014 0.163789 -7.99517 6.36099 28.0275 -2.84217e-014 0 24.6296 -6.59758 6.48884 -3.96464 22.2558 -0.272799 -15.5032 1.62374 -0.587758 -12.0298 0 -2.84217e-014 15.2211 -0.0136742 4.54997 -31.2689 0 2.84217e-014 2.08426 -0.251451 -9.19011 -28.0275 2.84217e-014 -2.84217e-014 -3.84994 -0.027864 -1.67262 10.0325 -1.42109e-014 0 1.28391 6.50601 -1.10916 -1.77636e-015 -38.4033 0 -2.99847 3.5105 -2.72343 3.55271e-015 -44.1642 -2.84217e-014 2.06188 -9.3953 17.729 7.10543e-015 -6.52112 15.0487 -7.45443e-017 0 3.18055e-015 -10.0325 0 0 -2.39281 0.333097 2.6579 0 -38.4033 0 2.59062 16.7969 -2.17944 -3.55271e-015 -44.1642 2.84217e-014 1.2163 -17.054 -14.4487 7.10543e-015 -6.52112 15.0487 -1.73937e-016 1.98785e-016 1.59028e-015 
